<svg width="119" height="136" viewBox="0 0 119 136" fill="none" xmlns="http://www.w3.org/2000/svg">
    <path d="M32.5973 98.2603C31.973 98.9326 31.0367 99.6449 29.7882 100.397C28.5557 101.133 27.0031 101.766 25.1304 102.294C23.2576 102.806 21.0568 103.062 18.5278 103.062C15.3905 103.062 12.6535 102.406 10.3165 101.093C7.99563 99.7649 6.18692 97.8282 4.89041 95.2832C3.6099 92.7222 2.96965 89.6009 2.96965 85.9195V84.3349C2.96965 80.6374 3.61791 77.5082 4.91442 74.9472C6.21093 72.3862 7.99563 70.4414 10.2685 69.1129C12.5414 67.7844 15.1344 67.1201 18.0476 67.1201C21.3289 67.1201 23.9939 67.6403 26.0427 68.6807C28.0915 69.7051 29.6361 71.1377 30.6765 72.9784C31.7169 74.8191 32.3492 76.94 32.5733 79.3409H23.9059C23.6818 77.6762 23.1536 76.4278 22.3213 75.5954C21.4889 74.7631 20.1684 74.3469 18.3597 74.3469C16.471 74.3469 14.9584 75.1473 13.8219 76.7479C12.6855 78.3485 12.1172 80.8615 12.1172 84.2868V85.9195C12.1172 89.2968 12.6695 91.7938 13.7739 93.4104C14.8943 95.0111 16.695 95.8114 19.176 95.8114C20.3925 95.8114 21.3449 95.6833 22.0331 95.4272C22.7374 95.1711 23.2496 94.915 23.5697 94.6589V89.905H18.1196V83.5185H32.5973V98.2603ZM35.8626 89.3768C35.8626 86.8318 36.3428 84.567 37.3031 82.5822C38.2635 80.5814 39.6801 79.0048 41.5528 77.8523C43.4255 76.6999 45.7305 76.1236 48.4675 76.1236C51.2366 76.1236 53.5575 76.6999 55.4303 77.8523C57.319 79.0048 58.7356 80.5814 59.6799 82.5822C60.6403 84.567 61.1205 86.8318 61.1205 89.3768V89.833C61.1205 92.362 60.6403 94.6269 59.6799 96.6277C58.7356 98.6285 57.327 100.205 55.4543 101.358C53.5815 102.494 51.2686 103.062 48.5155 103.062C45.7625 103.062 43.4416 102.494 41.5528 101.358C39.6801 100.205 38.2635 98.6285 37.3031 96.6277C36.3428 94.6269 35.8626 92.362 35.8626 89.833V89.3768ZM44.53 89.833C44.53 91.6257 44.7861 93.1223 45.2983 94.3228C45.8265 95.5073 46.8989 96.0995 48.5155 96.0995C50.1002 96.0995 51.1566 95.5073 51.6848 94.3228C52.213 93.1223 52.4771 91.6257 52.4771 89.833V89.3768C52.4771 88.2244 52.3651 87.176 52.141 86.2316C51.9329 85.2712 51.5407 84.5109 50.9645 83.9507C50.3883 83.3745 49.556 83.0864 48.4675 83.0864C47.4111 83.0864 46.5948 83.3745 46.0186 83.9507C45.4583 84.5109 45.0662 85.2712 44.8421 86.2316C44.634 87.176 44.53 88.2244 44.53 89.3768V89.833ZM63.5214 89.3768C63.5214 86.8318 64.0016 84.567 64.962 82.5822C65.9224 80.5814 67.3389 79.0048 69.2117 77.8523C71.0844 76.6999 73.3893 76.1236 76.1264 76.1236C78.8955 76.1236 81.2164 76.6999 83.0891 77.8523C84.9779 79.0048 86.3944 80.5814 87.3388 82.5822C88.2992 84.567 88.7794 86.8318 88.7794 89.3768V89.833C88.7794 92.362 88.2992 94.6269 87.3388 96.6277C86.3944 98.6285 84.9859 100.205 83.1131 101.358C81.2404 102.494 78.9275 103.062 76.1744 103.062C73.4213 103.062 71.1004 102.494 69.2117 101.358C67.3389 100.205 65.9224 98.6285 64.962 96.6277C64.0016 94.6269 63.5214 92.362 63.5214 89.833V89.3768ZM72.1889 89.833C72.1889 91.6257 72.445 93.1223 72.9572 94.3228C73.4854 95.5073 74.5578 96.0995 76.1744 96.0995C77.759 96.0995 78.8155 95.5073 79.3437 94.3228C79.8719 93.1223 80.136 91.6257 80.136 89.833V89.3768C80.136 88.2244 80.0239 87.176 79.7998 86.2316C79.5918 85.2712 79.1996 84.5109 78.6234 83.9507C78.0472 83.3745 77.2148 83.0864 76.1264 83.0864C75.07 83.0864 74.2537 83.3745 73.6774 83.9507C73.1172 84.5109 72.7251 85.2712 72.501 86.2316C72.2929 87.176 72.1889 88.2244 72.1889 89.3768V89.833ZM91.1323 89.4009C91.1323 86.7758 91.5084 84.4709 92.2607 82.4861C93.029 80.4853 94.1655 78.9247 95.6701 77.8043C97.1747 76.6839 99.0394 76.1236 101.264 76.1236C102.417 76.1236 103.457 76.3477 104.386 76.7959C105.314 77.2441 106.138 77.8763 106.858 78.6926V65.7035H115.55V102.582H107.771L107.363 99.845C106.61 100.837 105.722 101.622 104.698 102.198C103.689 102.774 102.529 103.062 101.216 103.062C99.0074 103.062 97.1507 102.494 95.6461 101.358C94.1575 100.205 93.029 98.6365 92.2607 96.6517C91.5084 94.6669 91.1323 92.418 91.1323 89.905V89.4009ZM99.7757 89.905C99.7757 91.6497 100.024 93.1223 100.52 94.3228C101.032 95.5073 102.009 96.0995 103.449 96.0995C105.034 96.0995 106.17 95.4832 106.858 94.2508V84.9591C106.202 83.7106 105.082 83.0864 103.497 83.0864C102.089 83.0864 101.112 83.6786 100.568 84.8631C100.04 86.0475 99.7757 87.5601 99.7757 89.4009V89.905ZM110.988 89.665C110.988 89.713 110.98 89.761 110.964 89.809L110.988 89.9531V89.665Z" fill="#5449D9"/>
    <path d="M42.5534 110.394C42.5534 113.918 43.4021 117.389 45.0278 120.515C46.6534 123.641 49.0081 126.329 51.8925 128.352C54.777 130.375 58.1064 131.674 61.599 132.138C65.0915 132.602 68.6445 132.217 71.9572 131.018" stroke="#5449D9" stroke-width="7.23108"/>
    <path d="M12.8691 16.0423L21.5365 40.9881L30.1799 16.0423H40.0477V51H32.4848V41.9484L33.2291 25.3579L24.0815 51H18.9434L9.81986 25.3579L10.5642 41.9484V51H3.00118V16.0423H12.8691ZM57.6486 33.6892C57.6486 32.5207 57.3605 31.5924 56.7842 30.9041C56.208 30.2158 55.2876 29.8717 54.0231 29.8717C52.9187 29.8717 52.0624 30.1358 51.4541 30.664C50.8459 31.1922 50.5418 31.9285 50.5418 32.8729H43.2909C43.2909 31.3363 43.7471 29.9437 44.6595 28.6952C45.5718 27.4307 46.8603 26.4223 48.525 25.67C50.1896 24.9178 52.1504 24.5416 54.4073 24.5416C56.4241 24.5416 58.2248 24.8857 59.8094 25.574C61.394 26.2463 62.6425 27.2627 63.5549 28.6232C64.4673 29.9837 64.9234 31.6884 64.9234 33.7372V44.5895C64.9234 46.1261 65.0115 47.3426 65.1875 48.2389C65.3796 49.1353 65.6437 49.9196 65.9798 50.5918V51H58.681C58.3929 50.3918 58.1608 49.6315 57.9847 48.7191C57.3124 49.4874 56.4481 50.1437 55.3917 50.6879C54.3513 51.2161 53.0628 51.4802 51.5262 51.4802C49.8775 51.4802 48.3809 51.1521 47.0364 50.4958C45.7079 49.8235 44.6515 48.9032 43.8672 47.7347C43.0828 46.5503 42.6907 45.1977 42.6907 43.6771C42.6907 40.9561 43.6991 38.8512 45.7159 37.3626C47.7327 35.858 50.7339 35.1058 54.7194 35.1058H57.6486V33.6892ZM53.1348 45.982C54.2552 45.982 55.1996 45.7419 55.9679 45.2617C56.7522 44.7656 57.3124 44.2213 57.6486 43.6291V39.2834H54.9355C53.1748 39.2834 51.9023 39.6675 51.118 40.4358C50.3337 41.1881 49.9415 42.1005 49.9415 43.1729C49.9415 43.9892 50.2297 44.6615 50.8059 45.1897C51.3821 45.7179 52.1584 45.982 53.1348 45.982ZM75.3935 51H68.1426V14.0975H75.3935V34.2654L76.6179 32.7048L83.0525 25.0218H91.7679L82.4763 35.802L92.5362 51H84.2049L77.8184 40.796L75.3935 43.2209V51ZM104.759 51.4802C102.022 51.4802 99.6769 50.912 97.7242 49.7755C95.7874 48.6391 94.2988 47.1185 93.2584 45.2137C92.234 43.309 91.7218 41.2042 91.7218 38.8992V37.9629C91.7218 35.3699 92.21 33.065 93.1864 31.0482C94.1788 29.0314 95.5873 27.4467 97.412 26.2943C99.2368 25.1258 101.414 24.5416 103.943 24.5416C107.704 24.5416 110.569 25.7101 112.538 28.047C114.507 30.3679 115.491 33.4571 115.491 37.3146V40.3878H99.0927C99.3488 41.9725 100.005 43.245 101.061 44.2053C102.134 45.1497 103.518 45.6219 105.215 45.6219C106.448 45.6219 107.592 45.3978 108.648 44.9496C109.721 44.4854 110.641 43.7652 111.41 42.7888L114.915 46.7983C114.099 47.9668 112.834 49.0392 111.121 50.0156C109.409 50.992 107.288 51.4802 104.759 51.4802ZM103.895 30.3759C102.47 30.3759 101.382 30.8561 100.629 31.8165C99.877 32.7608 99.3808 33.9933 99.1407 35.5139H108.36V34.9377C108.344 33.6092 107.976 32.5207 107.256 31.6724C106.552 30.8081 105.431 30.3759 103.895 30.3759Z" fill="#5449D9"/>
</svg>
